<?xml version="1.0" standalone="no"?>
<!DOCTYPE svg PUBLIC "-//W3C//DTD SVG 1.1//EN" "http://www.w3.org/Graphics/SVG/1.1/DTD/svg11.dtd">
<svg
  t="1557904778321"
  viewBox="0 0 1024 1024"
  version="1.1"
  xmlns="http://www.w3.org/2000/svg"
  p-id="4365"
  xmlns:xlink="http://www.w3.org/1999/xlink"
  width="1em"
  height="1em"
  fill="currentColor">
  <path
    d="M511.998 45.547c-256.851 0-465.061 208.217-465.061 465.061 0 256.851 208.207 465.068 465.061 465.068s465.068-208.217 465.068-465.068c0-256.843-208.217-465.061-465.068-465.061zM668.506 359.058l71.329-71.329 34.406 34.409-71.318 71.329 71.318 71.329-34.406 34.406-105.734-105.734 34.406-34.409zM242.102 322.139l34.412-34.409 105.734 105.739-105.734 105.734-34.412-34.406 71.329-71.329-71.329-71.329zM748.054 733.495c-14.47-117.52-114.621-208.516-236.054-208.516s-221.59 90.996-236.054 208.516h-49.482c14.706-144.739 136.919-257.684 285.538-257.684s270.83 112.947 285.538 257.684h-49.482z"
    p-id="4366"
  ></path>
</svg>
